<?xml version="1.0" encoding="utf-8"?>
<!-- Generator: Adobe Illustrator 26.3.1, SVG Export Plug-In . SVG Version: 6.00 Build 0)  -->
<svg version="1.1" id="Layer_1" xmlns="http://www.w3.org/2000/svg" xmlns:xlink="http://www.w3.org/1999/xlink" x="0px" y="0px"
	 viewBox="0 0 24 24" style="enable-background:new 0 0 24 24;" xml:space="preserve">
<g>
	<path d="M16.7,1c-1.1,0.2-2.2,0.4-3.2,0.8C10.6,2.9,8.2,5.2,7.1,8c-1.7,4-0.8,8.8,2.2,12c1.6,1.8,3.8,2.8,6.1,3.5
		c-2.3,0.4-4.6,0.4-6.8-0.5C4.2,21.4,1.1,17.1,1,12.4c-0.2-4.7,2.6-9.1,6.9-11C10.7,0.1,13.7,0.1,16.7,1L16.7,1z"/>
	<path d="M17.1,4.6c2.2-0.1,4.2,0.8,5.9,2.2c-1.8,1-3.6,1.9-5.4,2.8c-0.7-0.9-1.3-1.7-2.2-2.2c-1-0.6-2-0.6-3.2-0.8
		C13.7,5.5,15.2,4.6,17.1,4.6L17.1,4.6z"/>
	<path d="M17,15.5c1.9,0.9,3.7,1.9,5.6,2.9c-1.7,1.2-3.6,2-5.7,1.8c-2.1-0.1-3.8-1.2-5.3-2.7c1,0,2,0,3-0.3c0.7-0.3,1.3-0.7,1.9-1.2
		C16.6,15.8,16.8,15.6,17,15.5L17,15.5z"/>
</g>
</svg>
